<svg width="44" height="44" viewBox="0 0 44 44" fill="none" xmlns="http://www.w3.org/2000/svg">
<rect width="44" height="44" rx="22" fill="#EE141F"/>
<path d="M19.6257 17.3381C19.1369 18.0774 18 19.1389 18 20C18 20.9972 19.0626 23.0054 20.4427 24.3684C21.8227 25.7315 22.9903 26.5 24 26.5C24.6874 26.5 25.0328 24.8421 26.8689 24.8421C28.2459 24.8421 30 26.3421 30.5 28C30.7867 28.9506 29.6639 29.8088 28.4048 30.4062C27.4177 30.8747 26.311 31.0432 25.2234 30.9385C23.2369 30.7474 20.4046 29.9623 17 26.7368C13.0985 22.5 12.9015 19.7244 13 17.0139C13.0985 14.3033 15.5 13 16.3116 13C17.0645 13 19.4244 15.0384 19.7616 16.6469C19.8118 16.8865 19.7607 17.134 19.6257 17.3381Z" fill="#F0F4F8"/>
</svg>
