<svg width="24" height="24" viewBox="0 0 24 24" fill="none" xmlns="http://www.w3.org/2000/svg">
<path fill-rule="evenodd" clip-rule="evenodd" d="M1.36309 6.0713C0.75 7.27456 0.75 8.8497 0.75 12C0.75 15.1503 0.75 16.7254 1.36309 17.9287C1.90238 18.9871 2.76289 19.8476 3.8213 20.3869C5.02456 21 6.5997 21 9.75 21H14.25C17.4003 21 18.9754 21 20.1787 20.3869C21.2371 19.8476 22.0976 18.9871 22.6369 17.9287C23.25 16.7254 23.25 15.1503 23.25 12C23.25 8.8497 23.25 7.27456 22.6369 6.0713C22.0976 5.01289 21.2371 4.15238 20.1787 3.61309C18.9754 3 17.4003 3 14.25 3H9.75C6.5997 3 5.02456 3 3.8213 3.61309C2.76289 4.15238 1.90238 5.01289 1.36309 6.0713ZM7.86608 9.32293C7.63021 9.12075 7.2751 9.14807 7.07293 9.38394C6.87075 9.61981 6.89807 9.97492 7.13394 10.1771L7.1793 10.2159L7.30637 10.3239C7.41594 10.4169 7.5729 10.5495 7.76294 10.7087C8.14277 11.0266 8.65597 11.4514 9.18768 11.8767C9.71781 12.3009 10.2731 12.731 10.7352 13.0572C10.9652 13.2195 11.1819 13.3631 11.3661 13.4684C11.4577 13.5207 11.5516 13.5696 11.6417 13.6069C11.7168 13.6379 11.8498 13.6875 12 13.6875C12.1502 13.6875 12.2833 13.6379 12.3583 13.6069C12.4484 13.5696 12.5423 13.5207 12.6339 13.4684C12.8182 13.3631 13.0349 13.2195 13.2648 13.0572C13.7269 12.731 14.2822 12.3009 14.8123 11.8767C15.344 11.4514 15.8573 11.0266 16.2371 10.7087C16.4271 10.5495 16.5841 10.4169 16.6936 10.3239L16.8207 10.2159L16.8652 10.1778C17.1011 9.97563 17.1293 9.61981 16.9271 9.38394C16.7249 9.14807 16.3698 9.12075 16.1339 9.32293L16.0906 9.35997L15.9658 9.46612C15.8578 9.55772 15.7028 9.68876 15.5149 9.84605C15.1389 10.1609 14.6325 10.5799 14.1096 10.9983C13.585 11.4179 13.0504 11.8315 12.6161 12.1381C12.3978 12.2922 12.2146 12.4123 12.0758 12.4916C12.0469 12.5081 12.0217 12.5218 12 12.5331C11.9783 12.5218 11.9531 12.5081 11.9242 12.4916C11.7854 12.4123 11.6022 12.2922 11.384 12.1381C10.9496 11.8315 10.415 11.4179 9.89046 10.9983C9.36749 10.5799 8.86116 10.1609 8.48512 9.84605C8.29724 9.68876 8.14219 9.55772 8.03422 9.46612L7.90943 9.35997L7.86608 9.32293Z" fill="white"/>
</svg>
